<svg xmlns="http://www.w3.org/2000/svg" viewBox="0 0 1000 1000" id="growth"><g fill="#E5E5E5"><path
      d="M945.05 561.67c3.5-4.99 21.181-3.67 21.181-3.67-5.851 1.55-9.58 5.32-11.891 8.83-13.2-4.021-26.34-5.07-26.34-5.07s5.97-3.17 11.2-7.72c4.77-1.59 10.63-1.37 10.63-1.37-6.33 5.33-4.78 9-4.78 9z"
    /><path
      d="M939.2 554.04c-5.23 4.55-11.2 7.72-11.2 7.72s13.14 1.05 26.34 5.07c13.3 4.06 26.66 11.14 26.66 23.2 0 24.02-76 46.819-76 46.819S940 664 822 699c-70.74 20.98-137.88 25.79-180.32 26.28l-.01-.95C642.33 709.67 653 711 653 711c-14.33-9-30.67 3.67-30.67 3.67 2.67-13.67-9.33-17-9.33-17 3.67 15.66-2.98 19.35-2.98 19.35-5.34-13.26-29.689-10.55-29.689-10.55 13.09 3.931 16.29 11.74 16.65 17.62L596 724s-88 31-247 46-295-29-307-76.3 50-48.7 68-56.851C128 628.7 73 625 74 614s72-30 72-30 87-18.75 142-18.75S315.33 580 315.33 580 795 516 892 522.69c66.66 4.59 58.7 21.32 47.2 31.35z"
    /><path
      d="M653 711s-10.67-1.33-11.33 13.33l.01.95c-24.43.279-40.68-.87-44.699-1.19-.36-5.88-3.561-13.689-16.65-17.62 0 0 24.35-2.71 29.689 10.55 0 0 6.65-3.689 2.98-19.35 0 0 12 3.33 9.33 17 0 0 16.34-12.67 30.67-3.67z"
    /></g><path
    fill="#295FC5"
    d="M899 551c.308-5.234-2.568-10.714-3.025-15.889-.385-4.345-.23-9.262.025-13.623.194-3.311 1.138-9.629 4.975-11.013 4.749-1.712 5.65 3.303 9.389-1.976 5.407-7.636.364-17.718 3.014-26.012.978-3.059 4.792-7.38 8.647-5.512 4.34 2.103.816 7.095 6.976 5.022 2.281-.768 3.968-3.295 6.875-3.898 2.494-.518 6.56-.513 9.11-.111 5.697.898 12.993 5.351 15.901 10.51 6.817 12.092-8.178 11.257-15.887 12.49-3.042.486-8.98 1.327-10.637 4.375-2.928 5.385 5.109 6.879 8.135 10.111 11.023 11.774-11.429 10.178-17.107 10.014-4.086-.117-8.132.053-9.514 4.512-1.419 4.582 3.294 7.211 2.023 12.012-1.775 6.708-12.803 12.109-18.9 8.988"
  /><path
    fill="#3E89FC"
    d="M439 576c.388-5.257 4.013-8.966 3.998-14.364-.01-3.714-1.055-7.479-2.971-10.647-2.627-4.344-6.25-6.168-11.027-6.986-3.556-.609-8.219.082-9.524-4.504-.468-1.644.873-4.24 1.024-5.998.229-2.66-.255-4.572-.998-7-3.024-9.874-11.682-10.392-17.891-2.973-7.436 8.886-11.501 17.957-1.111 26.109 3.653 2.866 9.968 6.02 11.389 10.863 1.802 6.143-5.012 5.092-7.291 10.111-3.328 7.331 2.24 7.555 7.402 8.389 8.568 1.384.818 4.152 2.087 9.413 4.559 1.409 15.91 9.053 20.411 6.622 5.271-2.845 8.855-17.644 6.002-22.535"
  /><path fill="#F4AC38" d="M905 370.15v233.1l-146.84 38v-242.3z" /><path
    fill="#FFC962"
    d="m905 370.15-146.84 28.8-123.5-63L768 311.15z"
  /><path fill="#E28529" d="M758.16 398.95v242.3l-59.32-33.38V498.2l-64.18-27.64V335.95z" /><path
    fill="#F4AC38"
    d="M698.84 607.87V652L552 690V527l82.66-16.21v60.96z"
  /><path fill="#F4AC38" d="M698.84 498.2v109.67l-64.18-36.12v-60.96z" /><path
    fill="#FFC962"
    d="m698.84 498.2-64.18 12.59v-40.23zM634.66 470.56v40.23L552 527l-123.5-63 133.34-24.8z"
  /><path fill="#E28529" d="M552 527v163l-75.59-42.54v-10.61l-47.91-24.91V464z" /><path
    fill="#F4AC38"
    d="M476.41 647.46v64.59l-146.84 38v-84.4l132.86-26.06zM476.41 636.85v10.61l-13.98-7.87z"
  /><path fill="#FFC962" d="m476.41 636.85-13.98 2.74-33.93-19.09v-8.56z" /><path
    fill="#FFC962"
    d="m462.43 639.59-132.86 26.06-123.5-63 146.26-30.32 76.17 39.61v8.56z"
  /><path fill="#E28529" d="M329.57 665.65v84.4l-123.5-69.5v-77.9z" /><path
    fill="#E22953"
    d="M688 222.5 642.5 292v-31.5L383.97 417.92l-7.13-29.86L632.5 241.5l-14-16.5z"
  /><path
    fill="#1E1950"
    d="M389 608c7.5 2 9 11.5 8.5 12.75s-61 .5-62 0 4.49-23.46 4.49-23.46c4.28 2.79 19.77 2.99 25.01 2.979l-1 4.98c0 .001 17.5.751 25 2.751z"
  /><path
    fill="#403882"
    d="M298.38 483.66s89.12 44.59 88.62 56.59-20.25 60-20.25 60-.65.02-1.75.02c-5.24.011-20.73-.189-25.01-2.979-.48-.31-.82-.66-.99-1.04l12.5-46.5L268 528.48l-.61-.211 10.67-30.93v-.01c14.42-6.47 20.44-12.83 20.44-12.83l-.12-.839z"
  /><path
    fill="#FDA181"
    d="M377.75 497.33c3.5 6.05 3.87 26.67.87 25.29-3-1.37-11.24-18.74-12.37-19 0 0 2.63 11.26 1 10.88-1.17-.27-7.39-5.7-10.96-10.7.09-1.63.52-3.5 1.5-5.56 2.53-5.32 2.66-12.39 2.41-16.94 5.11 3.84 14.99 11.61 17.55 16.03z"
  /><path
    fill="#F77556"
    d="M360.2 481.3c.25 4.55.12 11.62-2.41 16.94-.98 2.06-1.41 3.93-1.5 5.56-1.42-1.979-2.42-3.89-2.53-5.39 5.45-7.58 4.03-16.45 3.33-19.4h.01s1.23.88 3.1 2.29z"
  /><path
    fill="#3E89FC"
    d="M357.09 479.01c.7 2.95 2.12 11.82-3.33 19.4-.38.54-.8 1.07-1.26 1.59 0 0-28.24-16.48-45.86-34.85 0-.01-.01-.02-.01-.02-5.96-15.34-8.49-53.58-9.42-72.87-1.19 12.54-2.65 34.01-1.77 57.82.4 10.92 1.29 22.32 2.94 33.58l.12.84s-6.02 6.36-20.44 12.83v.01c-13.46 6.03-34.25 12.16-64.31 13.3 0 0-.47-28.36.34-53.53 3.47-14.11 9.95-36.52 14.02-50.35-3.67 7.16-8.25 16.14-12.43 24.45-5.36 10.64-10.08 20.2-11.43 23.46-3.58 8.66-10.42 39.5-10.42 39.5-1.46.56-2.97.99-4.5 1.31-7.07 1.5-14.29.72-16.39.44-.4-.05-.61-.09-.61-.09s3.5-34.66 6-41.83 27.34-76.5 30.84-81.17c2.58-3.43 15.98-9.66 22.88-12.72l28.1 8.02 7.2 11.55h-.01l-5.26 10.82-6.91 71 4.57 14 9.76-13.33 6.17-71.67-5.71-10.82 4.49-12.38 21.22-7.67c3.5 1.33 7.03 2.94 7.83 4.2 1.67 2.67 9.5 68.34 9.5 68.34s25.67 36.16 43.83 45.83c0 0 .12.36.26 1.01z"
  /><path
    fill="#295FC5"
    d="M306.63 465.13c-4.77-4.97-8.76-10.09-11.19-15.05-.88-23.81.58-45.28 1.77-57.82.93 19.29 3.46 57.53 9.42 72.87zM295.67 359.63l-21.22 7.67.5-1.38L288 357s3.81 1.15 7.67 2.63z"
  /><path
    fill="#F77556"
    d="M295.67 317.67s-3.47 3.83-7.17 5.66l-1.79-14.3c.11.27.21.49.29.64 1.33 2.33 8.67 8 8.67 8z"
  /><path
    d="M288.52 326.66c.29.28.31.74.03 1.04-.08.08-1.38 1.43-4.77 1.43-1.63 0-3.75-.31-6.44-1.23a.753.753 0 0 1-.47-.95c.13-.39.56-.6.95-.47 7.24 2.46 9.62.21 9.64.19.29-.29.76-.3 1.06-.01z"
  /><path
    fill="#FDA181"
    d="M288.5 323.33s2.17 15.34 0 16c-2.17.67-14.5 3.34-14.5 3.34s-7.1.33-11.43-2.42c0 0 4.94 6.89 12.43 8.81.35 2.12.73 4.2 1 5.27l-8 16.34-17.83-19c0-1.5-1.57-12.56-1.57-12.56l8.57-2.61-.5-10.67s-4.84.34-6-6.66c-1.17-7 3.83-7.12 5.66-5.23 1.84 1.89 3.17 3.56 3.17 3.56l4.33-1.83-2.83-12.5s-4.32-.67-4.5-5.34c-.33-8.66 24.83-9.16 24.83-9.16s.81 3.47 1.83 7.61c-4.57-1.55-9.63 3.12-9.84 3.32a.988.988 0 0 0-.05 1.41c.2.21.46.32.73.32.25 0 .49-.09.68-.27 1.29-1.21 5.27-4.05 8.19-2.77.26.12.55.11.8.01 1.09 4.32 2.3 8.86 3.04 10.73l1.79 14.3zm.05 4.37a.74.74 0 0 0-.03-1.04.754.754 0 0 0-1.06.01c-.02.02-2.4 2.27-9.64-.19a.753.753 0 0 0-.95.47c-.13.39.08.82.47.95 2.69.92 4.81 1.23 6.44 1.23 3.39 0 4.69-1.35 4.77-1.43zm-5.28-20.45c0-1.24-.56-2.25-1.25-2.25s-1.25 1.01-1.25 2.25.56 2.25 1.25 2.25 1.25-1.01 1.25-2.25z"
  /><path fill="#3E89FC" d="m288 357-13.05 8.92-3.71 2.54h-.01l-3.23 2.21 8-16.34z" /><path
    d="M283.67 296.47c.51.22.74.81.51 1.31-.1.24-.29.42-.51.52-.18-.69-.35-1.37-.51-2.02.17.05.34.11.51.19z"
  /><path
    d="M283.16 296.28c.16.65.33 1.33.51 2.02-.25.1-.54.11-.8-.01-2.92-1.28-6.9 1.56-8.19 2.77-.19.18-.43.27-.68.27-.27 0-.53-.11-.73-.32a.988.988 0 0 1 .05-1.41c.21-.2 5.27-4.87 9.84-3.32z"
  /><ellipse cx="282.02" cy="307.25" fill="#231F20" rx="1.25" ry="2.25" /><path
    fill="#1E1950"
    d="M282.83 282.17c.84 4.83-1.5 6.5-1.5 6.5s-25.16.5-24.83 9.16c.18 4.67 4.5 5.34 4.5 5.34l2.83 12.5-4.33 1.83s-1.33-1.67-3.17-3.56c-1.83-1.89-6.83-1.77-5.66 5.23 1.16 7 6 6.66 6 6.66l.5 10.67-8.57 2.61-1.27.39s-.16-1.83-1.66-7.67c-1.5-5.83-14.84-21.5-16-23.16-1.17-1.67 3.33-6.17 3.33-6.17-6.67-11.17 8.17-24.67 24.67-28s24.33 2.83 25.16 7.67z"
  /><path
    fill="#295FC5"
    d="m278.06 497.34-10.67 30.93-25.47 73.841-2.25-.78-3.5-70.25-10.5-3.75-13.91.669 1.99-17.36c30.06-1.14 50.85-7.27 64.31-13.3z"
  /><path
    fill="#1E1950"
    d="m269.96 379.68 5.71 10.82-6.17 71.67-9.76 13.33-4.57-14 6.91-71 5.26-10.82h.01l1.65 2.65zM274.95 365.92l-.5 1.38-3.21 1.16z"
  /><path
    fill="#1E1950"
    d="m274.45 367.3-4.49 12.38-.96 2.65-1.65-2.65-7.2-11.55 4.9 1.4h.01l2.94 1.14 3.23-2.21h.01z"
  /><path
    fill="#F77556"
    d="M274 342.67s.48 3.23 1 6.39c-7.49-1.92-12.43-8.81-12.43-8.81 4.33 2.75 11.43 2.42 11.43 2.42z"
  /><path fill="#3E89FC" d="m250.17 351.67 17.83 19-2.94-1.14h-.01l-5.31-2.06-23.57-9.14z" /><path
    fill="#1E1950"
    d="m265.05 369.53-4.9-1.4-.41-.66z"
  /><path
    fill="#295FC5"
    d="m259.74 367.47.41.66-28.1-8.02c2.48-1.09 4.12-1.78 4.12-1.78l23.57 9.14z"
  /><path
    fill="#1E1950"
    d="M246.5 693.7c5.75 3.21 5.25 10.05 2.75 11.8s-59.5.75-60.5 0 2.76-24.57 2.76-24.57c15.67 2.32 23.67 1.91 27.25 1.38l-.51 5.69s22.5 2.5 28.25 5.7z"
  /><path
    fill="#295FC5"
    d="m241.92 602.11-3.67 10.64-17 69s-.69.29-2.49.56c-3.58.53-11.58.94-27.25-1.38-.41-.05-.82-.12-1.24-.18L206 603.83v-.51l22.17-.15 11.5-1.84 2.25.78z"
  /><path fill="#E28529" d="m236.17 531.08 3.5 70.25-11.5 1.84-2.5-75.84z" /><path
    fill="#F4AC38"
    d="m225.67 527.33 2.5 75.84-22.17.15-75.17.51 2.01-72s25.09 26.29 41.39 29.92v.01l.94 9.07h6.5v-9.07l-.07-.24c15.83-4.87 44.07-34.19 44.07-34.19z"
  /><path
    fill="#FFC962"
    d="m211.76 528 13.91-.67s-28.24 29.32-44.07 34.189c-.67.2-1.31.37-1.93.48-1.65.3-3.48.19-5.44-.25-16.3-3.63-41.39-29.92-41.39-29.92l27.44-1.33h1.15v-.06l43.57-2.11 6.76-.329z"
  /><path
    fill="#295FC5"
    d="M215.68 431.21c4.18-8.31 8.76-17.29 12.43-24.45-4.07 13.83-10.55 36.24-14.02 50.35.3-9.71.8-18.95 1.59-25.9z"
  /><path
    fill="#E28529"
    d="M205 511.83v16.479l-4.17.171.5-12.521-11.05.17 2.22-3.8 3.34-.33 9.16-.169z"
  /><path
    fill="#FDA181"
    d="M194.5 503.17c2 4.5 1.34 8.83 1.34 8.83l-3.34.33-2.22 3.8h-.01c-.18.32-.38.66-.6 1.04-2.84 4.83-6.5 7.33-11.84 6-1.75-.439-2.88-3.53-3.6-7.479a62.162 62.162 0 0 1-.66-4.681c-.48-4.59-.61-9.399-.63-12.32 2.5-.24 12.11-1.02 19.2.31.81 1.17 1.66 2.59 2.36 4.17z"
  /><path
    fill="#F77556"
    d="M189.33 495.48s1.33 1.34 2.81 3.52c-7.09-1.33-16.7-.55-19.2-.31-.02-1.71 0-2.77 0-2.77 2.1.28 9.32 1.06 16.39-.44z"
  /><path
    fill="#FFF"
    d="M181.67 561.76v9.07h-6.5l-.94-9.07v-.01c1.96.44 3.79.55 5.44.25.62-.11 1.26-.28 1.93-.48l.07.24z"
  /><path
    fill="#E28529"
    d="M174.23 515.69 162 515l-.57 15.44-1.15.06h-2.19s.74-18.67.74-19.49c0-.81 14.29-.029 14.74 0 .17 1.62.39 3.21.66 4.68z"
  /><path
    fill="#231F20"
    d="M215.68 431.96a.75.75 0 0 1-.668-1.091l16.574-32.543a.75.75 0 0 1 1.337.681l-16.574 32.543a.75.75 0 0 1-.669.41zM295.604 451.097h-.014a.75.75 0 0 1-.736-.764c.039-2.135.948-52.388 1.805-60.108a.751.751 0 0 1 1.492.166c-.85 7.651-1.787 59.447-1.796 59.97a.752.752 0 0 1-.751.736zM428.501 594.85a.75.75 0 0 1-.737-.895c.037-.191 3.553-19.472-13.059-44.878a.75.75 0 1 1 1.256-.82c16.972 25.957 13.433 45.183 13.274 45.988a.748.748 0 0 1-.734.605zM905.001 549.75a.75.75 0 0 1-.746-.836c.056-.482 5.88-48.372 34.441-61a.75.75 0 1 1 .607 1.372c-27.786 12.284-33.504 59.326-33.559 59.8a.748.748 0 0 1-.743.664z"
  /><path
    fill="#3E89FC"
    d="M709.5 671.5c-3.301-5.571-13.156-14.354-7.137-22.137 2.074-2.684 6.894-1.599 8.162-5.838 1.156-3.858-2.562-7.541-2.525-11.525.045-4.936 1.667-7.086 6.109-7.136 5.543-.062 4.549 1.987 7.002-3.853 3.233-7.698 13.439-16.711 18.764-5.012 2.075 4.562.75 5.782-1.351 9.1-2.752 4.346-4.159 5.94-1.01 10.276 1.96 2.7 6.919 4.698 5.51 9.122-1.521 4.774-6.577 2.495-10.024 3.477-10.952 3.117-2.333 13.413-4.976 20.05-2.186 5.486-16.452 6.526-19.024 1.976"
  /><path
    fill="#231F20"
    d="M708.499 685.75a.748.748 0 0 1-.746-.689c-.021-.247-1.846-25.021 13.663-44.281a.75.75 0 0 1 1.168.942c-15.124 18.782-13.356 42.977-13.337 43.219a.75.75 0 0 1-.687.808l-.061.001z"
  /><path
    fill="#295FC5"
    d="M686 669.5c-3.13 1.705-7.918 3.707-11.387 1.861-5.059-2.691-.945-4.913-2.104-8.375-1.258-3.759-7.646-4.343-10.535-6.861-4.243-3.699-3.094-8.032-.46-12.625 2.922-5.097 5.66-4.393 10.984-1.623 3.575 1.859 10.719 6.928 12.511 10.734.783 1.662-.351 4.36.455 5.898.891 1.701 3.862 1.388 5.045 3.09 2.656 3.822-1.854 6.94-5.01 7.9"
  /><path
    fill="#231F20"
    d="M689.999 685.75a.75.75 0 0 1-.742-.651c-.035-.262-3.592-26.168-15.581-31.923a.75.75 0 1 1 .648-1.352c12.72 6.105 16.274 31.979 16.419 33.077a.749.749 0 0 1-.744.849z"
  /><ellipse cx="124.333" cy="677.791" fill="#FFF" rx="18" ry="4.932" /><ellipse
    cx="151.826"
    cy="693.701"
    fill="#FFF"
    rx="14.333"
    ry="4.401"
  /><ellipse cx="166.159" cy="636.85" fill="#FFF" rx="7.127" ry="2.188" /><ellipse
    cx="803.873"
    cy="655.913"
    fill="#FFF"
    rx="7.127"
    ry="2.188"
  /></svg>
