<svg xmlns="http://www.w3.org/2000/svg" viewBox="0 0 28 23.5" id="reddit-logo"><path d="M28 11.5C28 9.57 26.43 8 24.5 8c-.793 0-1.517.275-2.104.721-2.063-1.277-4.748-2.087-7.71-2.198l1.649-4.947 4.666.933a2.5 2.5 0 1 0 .195-.98L15.665.423l-2.029 6.089c-3.089.061-5.895.886-8.032 2.208A3.47 3.47 0 0 0 3.5 8a3.498 3.498 0 0 0-1.956 6.401c-.02.199-.044.397-.044.599 0 4.687 5.607 8.5 12.5 8.5s12.5-3.813 12.5-8.5c0-.202-.024-.4-.044-.599A3.498 3.498 0 0 0 28 11.5zM23.5 1c.827 0 1.5.673 1.5 1.5S24.327 4 23.5 4 22 3.327 22 2.5 22.673 1 23.5 1zm2 14c0 4.136-5.159 7.5-11.5 7.5S2.5 19.136 2.5 15 7.659 7.5 14 7.5s11.5 3.364 11.5 7.5zM1 11.5C1 10.122 2.122 9 3.5 9c.443 0 .854.126 1.215.329-1.455 1.101-2.505 2.454-2.959 3.957A2.492 2.492 0 0 1 1 11.5zm22.285-2.171A2.47 2.47 0 0 1 24.5 9c1.378 0 2.5 1.122 2.5 2.5 0 .7-.291 1.331-.756 1.786-.454-1.504-1.504-2.857-2.959-3.957z"></path><circle cx="10" cy="13.5" r="2"></circle><circle cx="18" cy="13.5" r="2"></circle><path d="M17.697 18.603c-.012.009-1.221.897-3.697.897s-3.685-.888-3.694-.896a.501.501 0 0 0-.613.791c.059.045 1.46 1.105 4.307 1.105s4.248-1.06 4.306-1.104a.499.499 0 0 0-.609-.793z"></path></svg>
